<svg width="317" height="82" viewBox="0 0 317 82" fill="none" xmlns="http://www.w3.org/2000/svg">
<path opacity="0.7" fill-rule="evenodd" clip-rule="evenodd" d="M169.857 47.0376C171.577 46.5487 171.7 46.4858 171.901 45.991C172.52 44.4637 170.309 40.7548 163.424 31.776C157.851 24.507 157.597 24.201 157.014 24.0546C156.662 23.9664 155.946 23.3124 154.844 22.0729C153.891 21.002 152.99 20.1572 152.703 20.0668C151.982 19.8398 151.873 19.9525 148.55 24.3816C146.752 26.7774 139.285 38.9195 137.338 42.6133C136.617 43.9801 136.016 45.3569 136.002 45.673C135.968 46.4368 136.378 46.9647 137.057 47.0315C137.911 47.1156 148.249 47.3065 153.25 47.3306C154.015 47.3343 154.659 47.3974 154.68 47.4706C154.875 48.1418 155.501 52.5966 155.665 54.4904C156.786 67.3588 153.703 76.3529 147.094 79.6693C146.514 79.9603 146.208 80.638 146.438 81.2477C146.668 81.8537 147.341 82.1679 147.931 81.9084C149.323 81.2963 150.356 80.5939 151.52 79.5037C156.483 74.8517 158.69 67.1586 158.149 56.3965C158.014 53.7073 157.486 49.209 157.183 48.1669C157.096 47.8678 157.074 47.5663 157.135 47.4971C157.196 47.4277 158.776 47.4479 160.646 47.542C165.51 47.7861 167.632 47.6698 169.857 47.0376ZM167.968 42.1067C166.071 39.1569 158.508 29.0192 157.015 27.4266C156.689 27.0786 156.676 27.0887 155.261 28.8655C153.705 30.8192 152.213 32.8997 149.635 36.713C148.713 38.0758 147.122 40.3902 146.099 41.856C145.075 43.3217 144.259 44.5913 144.284 44.677C144.288 44.6919 144.292 44.7056 144.297 44.7182C144.362 44.8579 144.724 44.8575 149.903 44.8841C152.278 44.8961 156.633 44.9927 159.58 45.0987C164.601 45.2791 167.793 45.2028 168.924 44.8755C169.566 44.6896 169.494 44.4803 167.968 42.1067ZM153.017 23.6443C152.522 23.1147 152.519 23.1148 152.062 23.6636C151.61 24.2059 151.671 24.3704 152.313 24.3401C152.6 24.3267 152.985 24.317 153.17 24.3186C153.582 24.3221 153.559 24.225 153.017 23.6443ZM151.872 26.7753C150.909 26.82 150.014 26.8897 149.883 26.9302C149.617 27.0122 148.325 28.9134 148.388 29.1302C148.41 29.2058 149.028 29.1458 149.762 28.9968C150.496 28.8478 151.343 28.7468 151.644 28.7723C152.125 28.8132 152.284 28.7068 152.948 27.9C153.364 27.3944 153.686 26.9164 153.663 26.8376C153.64 26.7586 152.834 26.7307 151.872 26.7753ZM146.379 32.0855C146.254 32.2122 146.024 32.5766 145.867 32.8953L145.583 33.4747L146.297 33.3848C146.69 33.3352 147.273 33.26 147.592 33.2174C148.327 33.12 149.597 32.4132 150.08 31.8332C150.449 31.3908 150.444 31.39 148.529 31.6222C147.425 31.756 146.511 31.9531 146.379 32.0855ZM145.446 35.9723C143.885 36.1866 143.826 36.2091 143.544 36.7015C143.164 37.3649 143.376 37.4032 145.283 37.0152C146.577 36.7519 146.827 36.6492 147.039 36.2943C147.175 36.0667 147.235 35.8513 147.171 35.8159C147.108 35.7803 146.332 35.8508 145.446 35.9723ZM143.544 39.7947C143.014 39.9507 142.347 40.0429 142.061 39.9998C141.6 39.93 141.504 39.9913 141.213 40.5383C141.032 40.8778 140.941 41.1876 141.011 41.2269C141.264 41.3691 143.779 40.5881 144.191 40.2395C144.863 39.6711 144.592 39.4856 143.544 39.7947ZM140.614 43.7588C139.679 43.9865 139.167 44.1944 139.041 44.3962L139.013 44.4396C138.958 44.5273 138.919 44.588 138.934 44.6298C138.967 44.7238 139.266 44.7231 140.236 44.7209L140.45 44.7204C141.462 44.7186 141.5 44.704 141.786 44.2049C141.948 43.9222 142.063 43.6302 142.041 43.5561C142.019 43.4818 141.377 43.5731 140.614 43.7588Z" fill="white"/>
<path opacity="0.7" fill-rule="evenodd" clip-rule="evenodd" d="M294.569 19.5165C294.682 20.0389 294.615 20.161 293.462 21.5481C291.971 23.3421 290.274 24.6522 286.096 27.234C284.489 28.2268 283.165 29.1142 283.154 29.2062C283.142 29.2981 283.33 29.5342 283.571 29.7308C284.412 30.4159 287.392 33.8192 289.024 35.9572C293.936 42.3935 301.547 48.1499 303.578 49.6323C303.901 49.8681 304.09 50.239 304.09 50.6389C304.091 51.633 302.991 52.1996 302.205 51.5912C298.99 49.1026 292.185 43.4612 285.884 35.8082C284.677 34.3425 281.64 31.0305 281.099 30.5893C281.04 30.5412 280.469 30.8576 279.832 31.2924C275.663 34.1344 266.968 39.8923 266.21 40.312C265.608 40.6456 264.97 40.4453 264.567 39.7964C264.4 39.5279 264.121 38.0497 263.948 36.5114C263.479 32.3544 262.822 18.0789 262.962 15.0767C263.22 9.52617 263.247 9.37128 263.974 9.1456C264.264 9.05596 265.49 9.2361 266.886 9.57341C268.502 9.96388 269.466 10.0929 269.808 9.96424C270.376 9.75083 270.76 9.85752 279.496 12.6565C290.288 16.1139 294.221 17.9036 294.569 19.5165ZM271.715 12.7411C273.854 13.199 285.865 17.2222 289.107 18.567C291.716 19.6492 291.894 19.7802 291.466 20.3008C290.711 21.2178 288.103 23.1067 283.829 25.8317C281.321 27.4307 277.649 29.8429 275.669 31.1923C270.963 34.3985 271.03 34.356 270.884 34.2369C270.815 34.1806 270.776 32.6674 270.798 30.8744C270.82 29.0814 270.834 26.2644 270.83 24.6144C270.817 19.9977 270.881 17.4302 271.07 14.9302C271.242 12.6567 271.247 12.6411 271.715 12.7411ZM265.474 12.4754C265.544 11.7617 265.545 11.7603 266.256 11.9134C267.035 12.0811 267.108 12.1484 266.764 12.3812C266.609 12.4858 266.295 12.7141 266.065 12.8889C265.548 13.2814 265.405 13.1808 265.474 12.4754ZM265.509 16.4134C265.595 16.3048 266.3 15.7353 267.074 15.1478C267.848 14.5604 268.533 14.1222 268.597 14.1742C268.66 14.226 268.663 14.8037 268.603 15.4584C268.507 16.5029 268.435 16.6818 268.013 16.9232C267.748 17.0744 267.102 17.6423 266.576 18.185C266.051 18.7277 265.571 19.131 265.51 19.0814C265.335 18.9389 265.334 16.6333 265.509 16.4134ZM265.543 23.6252C265.493 23.2732 265.479 22.8411 265.511 22.665C265.545 22.4809 266.193 21.7954 267.035 21.0534C268.495 19.7665 268.499 19.764 268.443 20.3394C268.369 21.0937 267.713 22.403 267.158 22.9033C266.917 23.1213 266.475 23.5169 266.177 23.7825L265.634 24.2652L265.543 23.6252ZM265.763 28.0901C265.719 27.5231 265.756 27.471 266.931 26.4012C267.599 25.7941 268.204 25.2917 268.277 25.2848C268.349 25.2778 268.421 25.4894 268.437 25.7549C268.461 26.1687 268.311 26.3963 267.385 27.3537C266.021 28.7642 265.822 28.8542 265.763 28.0901ZM266.395 31.6558C266.657 31.5277 267.159 31.07 267.511 30.6384C268.208 29.7836 268.537 29.7817 268.3 30.6344C268.155 31.1574 266.506 33.2401 266.216 33.2677C266.136 33.2752 266.036 32.968 265.994 32.5849C265.927 31.9677 265.973 31.8618 266.395 31.6558ZM266.37 37.0058C266.36 36.7676 266.669 36.3028 267.317 35.5802C267.846 34.9906 268.328 34.5481 268.388 34.5969C268.447 34.6456 268.517 34.9519 268.542 35.2773C268.587 35.8522 268.563 35.8861 267.724 36.4662L267.546 36.5891C266.742 37.1462 266.493 37.318 266.413 37.2593C266.377 37.2331 266.375 37.1612 266.372 37.0571L266.37 37.0058Z" fill="white"/>
<path opacity="0.7" fill-rule="evenodd" clip-rule="evenodd" d="M24.4516 24.5163C24.3388 25.0387 24.4053 25.1608 25.5581 26.5479C27.0494 28.3419 28.7467 29.652 32.9247 32.2338C34.5316 33.2266 35.8555 34.114 35.8669 34.206C35.8785 34.2979 35.6904 34.534 35.4491 34.7306C34.6085 35.4157 31.6282 38.819 29.9966 40.957C25.2169 47.2199 14.1573 52.8396 10.6822 54.5037C10.101 54.782 9.85695 55.4821 10.1445 56.0587C10.4096 56.59 11.0371 56.8243 11.5775 56.5782C14.8683 55.08 25.8668 49.637 33.1369 40.808C34.3439 39.3423 37.3802 36.0303 37.9215 35.5891C37.9806 35.541 38.5511 35.8574 39.1889 36.2922C43.3572 39.1342 52.0528 44.8922 52.8101 45.3118C53.412 45.6454 54.0509 45.4451 54.4538 44.7962C54.6207 44.5277 54.899 43.0495 55.0727 41.5112C55.542 37.3542 56.1987 23.0787 56.0587 20.0765C55.8001 14.526 55.7736 14.3711 55.0463 14.1454C54.757 14.0558 53.5308 14.2359 52.1347 14.5732C50.5189 14.9637 49.5546 15.0927 49.2124 14.964C48.6448 14.7506 48.261 14.8573 39.5242 17.6563C28.7324 21.1137 24.7996 22.9034 24.4516 24.5163ZM47.306 17.7409C45.1662 18.1988 33.1553 22.222 29.9133 23.5668C27.3045 24.649 27.1263 24.78 27.5547 25.3006C28.3096 26.2177 30.9174 28.1065 35.1913 30.8315C37.6993 32.4305 41.3714 34.8428 43.3517 36.1921C48.0573 39.3983 47.9904 39.3558 48.1365 39.2367C48.2057 39.1804 48.2445 37.6672 48.2224 35.8742C48.2006 34.0812 48.1863 31.2642 48.1908 29.6142C48.2032 24.9975 48.1394 22.43 47.9503 19.93C47.7784 17.6565 47.7737 17.6409 47.306 17.7409ZM53.5467 17.4752C53.477 16.7615 53.4751 16.7602 52.7647 16.9132C51.9856 17.0809 51.9124 17.1482 52.2565 17.381C52.4111 17.4856 52.7256 17.7139 52.9556 17.8887C53.4721 18.2812 53.6158 18.1806 53.5467 17.4752ZM53.5115 21.4133C53.4251 21.3046 52.721 20.7351 51.9468 20.1476C51.1727 19.5602 50.4875 19.122 50.4238 19.174C50.3602 19.2258 50.3573 19.8036 50.4173 20.4582C50.513 21.5027 50.5853 21.6816 51.0078 21.923C51.2723 22.0743 51.9188 22.6421 52.4444 23.1848C52.9699 23.7275 53.4498 24.1309 53.5108 24.0812C53.6857 23.9387 53.6863 21.6331 53.5115 21.4133ZM53.4774 28.625C53.5276 28.273 53.5419 27.8409 53.5093 27.6649C53.4753 27.4807 52.827 26.7952 51.9855 26.0532C50.5259 24.7663 50.521 24.7638 50.5774 25.3393C50.6512 26.0935 51.3073 27.4028 51.8622 27.9032C52.1036 28.1211 52.5455 28.5167 52.8437 28.7823L53.3861 29.265L53.4774 28.625ZM53.257 33.0899C53.301 32.523 53.2648 32.4708 52.0891 31.401C51.4217 30.7939 50.8164 30.2915 50.7438 30.2846C50.6714 30.2776 50.5992 30.4892 50.5837 30.7547C50.5596 31.1685 50.7092 31.3961 51.6353 32.3535C52.9999 33.764 53.198 33.854 53.257 33.0899ZM52.6254 36.6556C52.3636 36.5275 51.8614 36.0698 51.5097 35.6383C50.813 34.7834 50.4836 34.7816 50.7205 35.6342C50.8659 36.1572 52.5143 38.2399 52.8048 38.2675C52.8849 38.275 52.9845 37.9678 53.0261 37.5847C53.0932 36.9675 53.0475 36.8616 52.6254 36.6556ZM52.6508 42.0056C52.6603 41.7674 52.3517 41.3027 51.7035 40.58C51.1747 39.9904 50.6929 39.5479 50.6329 39.5967C50.5731 39.6454 50.5036 39.9517 50.4783 40.2771C50.434 40.852 50.4575 40.8859 51.2965 41.466L51.4741 41.5889C52.2789 42.146 52.5271 42.3178 52.6074 42.2591C52.6431 42.2329 52.6455 42.161 52.649 42.0569L52.6508 42.0056Z" fill="white"/>
</svg>
