<svg width="140" height="48" viewBox="0 0 140 48" fill="none" xmlns="http://www.w3.org/2000/svg">
<g filter="url(#filter0_b_95_543)">
<path d="M140 43.1884C140 45.8468 138.198 48 135.969 48H4.03665C1.80851 48 0 45.8468 0 43.1884V4.81784C0 2.1608 1.8086 0 4.03665 0H135.967C138.198 0 139.999 2.1608 139.999 4.81784L140 43.1884Z" fill="white"/>
</g>
<path d="M35.7158 25.0175C35.6795 20.9748 39.0216 19.008 39.1744 18.9165C37.2817 16.1532 34.3481 15.7756 33.3171 15.7455C30.8532 15.4859 28.4631 17.2219 27.208 17.2219C25.9278 17.2219 23.9949 15.7706 21.9118 15.8132C19.2311 15.8546 16.7234 17.4088 15.3479 19.8221C12.5095 24.7428 14.6264 31.9741 17.346 35.9516C18.7063 37.9008 20.296 40.0745 22.3765 39.998C24.4121 39.9152 25.1724 38.6998 27.6289 38.6998C30.0627 38.6998 30.7768 39.998 32.8986 39.9491C35.0834 39.9152 36.4587 37.9924 37.7715 36.0268C39.3436 33.7954 39.9748 31.5953 40 31.4824C39.9498 31.4648 35.7584 29.8618 35.7158 25.0175V25.0175ZM31.7074 13.129C32.8021 11.758 33.5513 9.89279 33.3433 8C31.7586 8.07024 29.777 9.09754 28.6358 10.4384C27.6261 11.62 26.7242 13.5567 26.9572 15.378C28.7374 15.5109 30.565 14.4786 31.7074 13.129V13.129Z" fill="black"/>
<path d="M58.0052 33.6448H55.9828L54.875 30.2742H51.0242L49.9689 33.6448H48L51.816 22.1697H54.1723L58.0052 33.6448ZM54.5411 28.8601L53.5392 25.8637C53.4332 25.5576 53.2338 24.8367 52.9416 23.702H52.906C52.7885 24.19 52.6006 24.9109 52.3432 25.8637L51.3583 28.8601H54.5411ZM67.7994 29.4059C67.7994 30.8131 67.4049 31.9255 66.6149 32.7421C65.9079 33.4689 65.0289 33.832 63.9807 33.832C62.8488 33.832 62.0349 33.4413 61.5406 32.6585V37H59.642V28.0901C59.642 27.2062 59.618 26.3 59.5717 25.3705H61.2415L61.3475 26.682H61.383C62.0162 25.6938 62.9771 25.1997 64.2666 25.1997C65.2747 25.1997 66.1162 25.5851 66.7895 26.3568C67.4618 27.1304 67.7994 28.1461 67.7994 29.4059V29.4059ZM65.8651 29.4732C65.8651 28.6678 65.6781 28.0039 65.3023 27.4805C64.8917 26.9364 64.3405 26.664 63.6494 26.664C63.181 26.664 62.7553 26.8156 62.3751 27.1148C61.9939 27.4166 61.7446 27.8107 61.628 28.2987C61.5692 28.5264 61.5398 28.7118 61.5398 28.8584V30.2389C61.5398 30.8399 61.7304 31.3478 62.1115 31.7634C62.4927 32.1773 62.9878 32.3851 63.597 32.3851C64.3121 32.3851 64.8687 32.117 65.2667 31.5849C65.6656 31.0511 65.8651 30.3475 65.8651 29.4732V29.4732ZM77.6282 29.4059C77.6282 30.8131 77.2337 31.9255 76.4438 32.7421C75.7358 33.4689 74.8577 33.832 73.8087 33.832C72.6768 33.832 71.8629 33.4413 71.3686 32.6585V37H69.47V28.0901C69.47 27.2062 69.4459 26.3 69.3996 25.3705H71.0694L71.1754 26.682H71.211C71.8433 25.6938 72.8042 25.1997 74.0945 25.1997C75.1017 25.1997 75.9432 25.5851 76.6183 26.3568C77.2899 27.1304 77.6282 28.1461 77.6282 29.4059ZM75.6931 29.4732C75.6931 28.6678 75.5052 28.0039 75.1294 27.4805C74.7188 26.9364 74.1694 26.664 73.4783 26.664C73.0099 26.664 72.5842 26.8156 72.2022 27.1148C71.821 27.4166 71.5726 27.8107 71.4559 28.2987C71.398 28.5264 71.3668 28.7118 71.3668 28.8584V30.2389C71.3668 30.8399 71.5583 31.3478 71.9377 31.7634C72.3188 32.1765 72.814 32.3851 73.4249 32.3851C74.1408 32.3851 74.6974 32.117 75.0946 31.5849C75.4936 31.0511 75.6931 30.3475 75.6931 29.4732V29.4732ZM88.6174 30.426C88.6174 31.4029 88.2648 32.1971 87.564 32.8102C86.7927 33.4793 85.7161 33.8147 84.3357 33.8147C83.0605 33.8147 82.0381 33.5767 81.2669 33.0999L81.706 31.5676C82.5386 32.0453 83.4532 32.2833 84.4488 32.2833C85.1648 32.2833 85.7214 32.1264 86.1186 31.8151C86.5166 31.5029 86.7179 31.0856 86.7179 30.5648C86.7179 30.0984 86.5514 29.7077 86.2246 29.3896C85.896 29.0723 85.3527 28.7765 84.5896 28.5049C82.5146 27.7556 81.4762 26.6596 81.4762 25.2179C81.4762 24.2763 81.8431 23.5055 82.5752 22.9027C83.3072 22.3009 84.2779 22 85.4855 22C86.5639 22 87.4625 22.1819 88.1758 22.545L87.6994 24.0435C87.0279 23.6917 86.27 23.5158 85.4222 23.5158C84.7526 23.5158 84.2271 23.6753 83.8513 23.9926C83.5351 24.2763 83.3748 24.6222 83.3748 25.0325C83.3748 25.4853 83.5575 25.8612 83.9207 26.1561C84.236 26.4277 84.8113 26.7235 85.643 27.0408C86.6636 27.4392 87.4134 27.9031 87.8934 28.436C88.377 28.9687 88.6174 29.6335 88.6174 30.426V30.426ZM94.9109 26.7501H92.8181V30.7674C92.8181 31.7892 93.1869 32.2988 93.926 32.2988C94.2652 32.2988 94.5467 32.2712 94.7693 32.2135L94.8218 33.6095C94.4479 33.7449 93.9553 33.813 93.3453 33.813C92.5955 33.813 92.0095 33.5914 91.5865 33.1482C91.1653 32.705 90.9534 31.9625 90.9534 30.9175V26.7467H89.7066V25.367H90.9534V23.852L92.8181 23.3071V25.367H94.9109V26.7501V26.7501ZM104.335 29.4395C104.335 30.7113 103.959 31.7555 103.209 32.5722C102.424 33.4129 101.381 33.8319 100.08 33.8319C98.8239 33.8319 97.8256 33.4293 97.0811 32.6248C96.3366 31.8185 95.9644 30.8028 95.9644 29.5775C95.9644 28.2952 96.3491 27.2451 97.1158 26.4285C97.8844 25.611 98.9193 25.2024 100.22 25.2024C101.474 25.2024 102.481 25.6059 103.244 26.4112C103.972 27.1925 104.335 28.2013 104.335 29.4395V29.4395ZM102.366 29.4818C102.366 28.7238 102.197 28.0736 101.858 27.5295C101.46 26.8725 100.89 26.544 100.152 26.544C99.3912 26.544 98.8079 26.8725 98.4107 27.5295C98.0705 28.0736 97.9013 28.735 97.9013 29.5162C97.9013 30.2751 98.0705 30.9269 98.4107 31.4693C98.8212 32.1264 99.3938 32.4549 100.136 32.4549C100.861 32.4549 101.431 32.1195 101.842 31.4529C102.191 30.8959 102.366 30.2414 102.366 29.4818V29.4818ZM110.509 26.9872C110.321 26.9535 110.12 26.9363 109.91 26.9363C109.242 26.9363 108.726 27.1795 108.363 27.6692C108.047 28.1004 107.889 28.6453 107.889 29.3032V33.6448H105.99V27.9763C105.99 27.0234 105.971 26.1543 105.935 25.3713H107.589L107.658 26.9544H107.711C107.912 26.4104 108.227 25.9714 108.66 25.6429C109.083 25.3472 109.54 25.1997 110.032 25.1997C110.208 25.1997 110.366 25.2117 110.507 25.2334L110.509 26.9872V26.9872ZM119 29.1162C119 29.4456 118.978 29.7231 118.93 29.95H113.235C113.256 30.7674 113.532 31.3934 114.061 31.8246C114.541 32.2092 115.162 32.4023 115.924 32.4023C116.767 32.4023 117.537 32.273 118.229 32.0117L118.526 33.287C117.718 33.6284 116.763 33.7983 115.661 33.7983C114.336 33.7983 113.296 33.4206 112.539 32.667C111.784 31.9125 111.405 30.8985 111.405 29.6284C111.405 28.3815 111.757 27.3425 112.462 26.5138C113.199 25.6292 114.195 25.1867 115.449 25.1867C116.681 25.1867 117.613 25.6291 118.247 26.5138C118.748 27.2149 119 28.084 119 29.1162V29.1162ZM117.189 28.6393C117.203 28.0935 117.078 27.6236 116.821 27.2261C116.492 26.7139 115.986 26.4587 115.309 26.4587C114.688 26.4587 114.182 26.7079 113.797 27.208C113.481 27.6055 113.293 28.0832 113.236 28.6376L117.189 28.6393Z" fill="black"/>
<path d="M53.8943 17.9081H52.9044L52.3629 16.2585H50.4799L49.9632 17.9081H49L50.8662 12.2911H52.0182L53.8943 17.9081ZM52.1999 15.5663L51.7098 14.0996C51.6585 13.9493 51.5636 13.5998 51.4174 13.0416H51.3997C51.3394 13.283 51.2535 13.6333 51.1241 14.0996L50.6429 15.5663H52.1999ZM58.5607 13.8583L56.978 17.9081H56.075L54.5438 13.8583H55.5416L56.2558 16C56.3763 16.3581 56.4791 16.6999 56.5562 17.0245H56.5819C56.6511 16.7334 56.7538 16.3916 56.8823 16L57.5877 13.8583H58.5607V13.8583ZM61.9298 17.9081L61.8607 17.4417H61.8349C61.5514 17.817 61.1384 17.9999 60.6139 17.9999C59.8659 17.9999 59.3324 17.4916 59.3324 16.808C59.3324 15.8084 60.2266 15.2915 61.7747 15.2915V15.2168C61.7747 14.6835 61.4822 14.4164 60.9062 14.4164C60.4932 14.4164 60.1318 14.5169 59.8145 14.717L59.6257 14.1253C60.0129 13.8917 60.4942 13.7749 61.0621 13.7749C62.1539 13.7749 62.7051 14.3331 62.7051 15.4503V16.942C62.7051 17.3507 62.7228 17.6676 62.7653 17.9089L61.9298 17.9081V17.9081ZM61.8004 15.8909C60.7682 15.8909 60.2523 16.1331 60.2523 16.7076C60.2523 17.1327 60.5191 17.3405 60.8886 17.3405C61.3617 17.3405 61.8004 16.991 61.8004 16.5161V15.8909ZM64.7735 13.1911C64.4642 13.1911 64.2232 12.9575 64.2232 12.6492C64.2232 12.3409 64.4723 12.1159 64.7912 12.1159C65.1093 12.1159 65.3672 12.3409 65.3584 12.6492C65.3584 12.9747 65.1183 13.1911 64.7735 13.1911ZM65.2555 17.9081H64.3269V13.8583H65.2555V17.9081ZM67.8342 17.9081H66.9056V12H67.8342V17.9081ZM71.7812 17.9081L71.712 17.4417H71.6863C71.4028 17.817 70.9898 17.9999 70.4652 17.9999C69.7173 17.9999 69.1839 17.4916 69.1839 16.808C69.1839 15.8084 70.0779 15.2915 71.626 15.2915V15.2168C71.626 14.6835 71.3336 14.4164 70.7576 14.4164C70.3446 14.4164 69.9831 14.5169 69.6658 14.717L69.4763 14.1244C69.8635 13.8909 70.3447 13.7741 70.9127 13.7741C72.0045 13.7741 72.5556 14.3323 72.5556 15.4495V16.9411C72.5556 17.3499 72.5743 17.6667 72.615 17.908H71.7812V17.9081ZM71.6518 15.8909C70.6194 15.8909 70.1037 16.1331 70.1037 16.7076C70.1037 17.1327 70.3703 17.3405 70.7399 17.3405C71.2131 17.3405 71.6518 16.991 71.6518 16.5161V15.8909V15.8909ZM76.3183 18C75.7255 18 75.2877 17.7578 75.0041 17.283H74.9855L74.9323 17.9081H74.141C74.1667 17.5835 74.1755 17.216 74.1755 16.8167V12H75.1051V14.4508H75.1228C75.3984 14.0009 75.8442 13.7759 76.4556 13.7759C77.4623 13.7759 78.1677 14.6097 78.1677 15.8257C78.1677 17.0829 77.3843 18 76.3183 18V18ZM76.1295 14.4826C75.5952 14.4826 75.1061 14.9326 75.1061 15.5578V16.2662C75.1061 16.8244 75.5455 17.283 76.1136 17.283C76.8093 17.283 77.2231 16.7334 77.2231 15.8583C77.2221 15.0416 76.7915 14.4826 76.1295 14.4826V14.4826ZM80.469 17.9081H79.5413V12H80.469V17.9081ZM85.5246 16.0996H82.7367C82.7553 16.8665 83.2781 17.2993 84.0526 17.2993C84.4655 17.2993 84.8439 17.2323 85.1789 17.1078L85.3233 17.7329C84.9281 17.8995 84.4638 17.9828 83.9223 17.9828C82.6144 17.9828 81.8407 17.1825 81.8407 15.9416C81.8407 14.6999 82.633 13.7664 83.8177 13.7664C84.8839 13.7664 85.5555 14.5333 85.5555 15.6917C85.559 15.8497 85.5511 15.9914 85.5246 16.0996V16.0996ZM84.6729 15.4581C84.6729 14.833 84.3458 14.3916 83.7522 14.3916C83.2186 14.3916 82.7987 14.8416 82.7366 15.4581H84.6729V15.4581ZM91.1533 18C89.9322 18 89.1409 17.1164 89.1409 15.9167C89.1409 14.6664 89.949 13.775 91.2233 13.775C92.4257 13.775 93.2358 14.6166 93.2358 15.8506C93.2358 17.1164 92.401 18 91.1533 18ZM91.1887 14.4328C90.5179 14.4328 90.0882 15.0408 90.0882 15.8909C90.0882 16.7248 90.5269 17.3328 91.18 17.3328C91.8331 17.3328 92.2707 16.6827 92.2707 15.8738C92.2716 15.0494 91.8418 14.4328 91.1887 14.4328V14.4328ZM98.2283 17.9081H97.3006V15.5827C97.3006 14.8665 97.017 14.5075 96.4579 14.5075C95.9076 14.5075 95.5283 14.9661 95.5283 15.4994V17.9081H94.6005V15.0159C94.6005 14.6578 94.5908 14.2739 94.5659 13.8574H95.383L95.4264 14.4826H95.4521C95.7001 14.0498 96.2089 13.7742 96.776 13.7742C97.6524 13.7742 98.2284 14.4242 98.2284 15.4822V17.9081H98.2283V17.9081ZM104.305 14.5333H103.283V16.4998C103.283 17.0004 103.463 17.2503 103.823 17.2503C103.987 17.2503 104.126 17.2331 104.236 17.2082L104.262 17.8918C104.081 17.9589 103.839 17.9923 103.541 17.9923C102.809 17.9923 102.372 17.6007 102.372 16.5754V14.5333H101.762V13.8583H102.372V13.1164L103.283 12.8493V13.8574H104.305V14.5333ZM109.223 17.9081H108.293V15.5998C108.293 14.8751 108.01 14.5084 107.451 14.5084C106.969 14.5084 106.523 14.8252 106.523 15.4667V17.9081H105.593V12H106.523V14.4328H106.54C106.833 13.9914 107.255 13.7742 107.796 13.7742C108.681 13.7742 109.223 14.4405 109.223 15.4994V17.9081V17.9081ZM113.968 16.0996H111.181C111.199 16.8665 111.722 17.2993 112.496 17.2993C112.91 17.2993 113.288 17.2323 113.623 17.1078L113.768 17.7329C113.373 17.8995 112.908 17.9828 112.366 17.9828C111.058 17.9828 110.285 17.1825 110.285 15.9416C110.285 14.6999 111.077 13.7664 112.262 13.7664C113.328 13.7664 113.999 14.5333 113.999 15.6917C114.003 15.8497 113.994 15.9914 113.968 16.0996V16.0996ZM113.117 15.4581C113.117 14.833 112.79 14.3916 112.197 14.3916C111.662 14.3916 111.242 14.8416 111.181 15.4581H113.117V15.4581Z" fill="black"/>
<defs>
<filter id="filter0_b_95_543" x="-104" y="-104" width="348" height="256" filterUnits="userSpaceOnUse" color-interpolation-filters="sRGB">
<feFlood flood-opacity="0" result="BackgroundImageFix"/>
<feGaussianBlur in="BackgroundImage" stdDeviation="52"/>
<feComposite in2="SourceAlpha" operator="in" result="effect1_backgroundBlur_95_543"/>
<feBlend mode="normal" in="SourceGraphic" in2="effect1_backgroundBlur_95_543" result="shape"/>
</filter>
</defs>
</svg>
