<svg width="154" height="48" viewBox="0 0 154 48" fill="none" xmlns="http://www.w3.org/2000/svg">
<g filter="url(#filter0_b_95_538)">
<path d="M154 43.1884C154 45.8468 152.017 48 149.565 48H4.44032C1.98936 48 0 45.8468 0 43.1884V4.81784C0 2.1608 1.98945 0 4.44032 0H149.564C152.017 0 153.999 2.1608 153.999 4.81784L154 43.1884Z" fill="white"/>
</g>
<path d="M53.8943 17.9081H52.9044L52.3629 16.2585H50.4799L49.9632 17.9081H49L50.8662 12.2911H52.0182L53.8943 17.9081ZM52.1999 15.5663L51.7098 14.0996C51.6585 13.9493 51.5636 13.5998 51.4174 13.0416H51.3997C51.3394 13.283 51.2535 13.6333 51.1241 14.0996L50.6429 15.5663H52.1999ZM58.5607 13.8583L56.978 17.9081H56.075L54.5438 13.8583H55.5416L56.2558 16C56.3763 16.3581 56.4791 16.6999 56.5562 17.0245H56.5819C56.6511 16.7334 56.7538 16.3916 56.8823 16L57.5877 13.8583H58.5607ZM61.9298 17.9081L61.8607 17.4417H61.8349C61.5514 17.817 61.1384 17.9999 60.6139 17.9999C59.8659 17.9999 59.3324 17.4916 59.3324 16.808C59.3324 15.8084 60.2266 15.2915 61.7747 15.2915V15.2168C61.7747 14.6835 61.4822 14.4164 60.9062 14.4164C60.4932 14.4164 60.1318 14.5169 59.8145 14.717L59.6257 14.1253C60.0129 13.8917 60.4942 13.7749 61.0621 13.7749C62.1539 13.7749 62.7051 14.3331 62.7051 15.4503V16.942C62.7051 17.3507 62.7228 17.6676 62.7653 17.9089L61.9298 17.9081ZM61.8004 15.8909C60.7682 15.8909 60.2523 16.1331 60.2523 16.7076C60.2523 17.1327 60.5191 17.3405 60.8886 17.3405C61.3617 17.3405 61.8004 16.991 61.8004 16.5161V15.8909ZM64.7735 13.1911C64.4642 13.1911 64.2232 12.9575 64.2232 12.6492C64.2232 12.3409 64.4723 12.1159 64.7912 12.1159C65.1093 12.1159 65.3672 12.3409 65.3584 12.6492C65.3584 12.9747 65.1183 13.1911 64.7735 13.1911ZM65.2555 17.9081H64.3269V13.8583H65.2555V17.9081ZM67.8342 17.9081H66.9056V12H67.8342V17.9081ZM71.7812 17.9081L71.712 17.4417H71.6863C71.4028 17.817 70.9898 17.9999 70.4652 17.9999C69.7173 17.9999 69.1839 17.4916 69.1839 16.808C69.1839 15.8084 70.0779 15.2915 71.626 15.2915V15.2168C71.626 14.6835 71.3336 14.4164 70.7576 14.4164C70.3446 14.4164 69.9831 14.5169 69.6658 14.717L69.4763 14.1244C69.8635 13.8909 70.3447 13.7741 70.9127 13.7741C72.0045 13.7741 72.5556 14.3323 72.5556 15.4495V16.9411C72.5556 17.3499 72.5743 17.6667 72.615 17.908H71.7812V17.9081ZM71.6518 15.8909C70.6194 15.8909 70.1037 16.1331 70.1037 16.7076C70.1037 17.1327 70.3703 17.3405 70.7399 17.3405C71.2131 17.3405 71.6518 16.991 71.6518 16.5161V15.8909ZM76.3183 18C75.7255 18 75.2877 17.7578 75.0041 17.283H74.9855L74.9323 17.9081H74.141C74.1667 17.5835 74.1755 17.216 74.1755 16.8167V12H75.1051V14.4508H75.1228C75.3984 14.0009 75.8442 13.7759 76.4556 13.7759C77.4623 13.7759 78.1677 14.6097 78.1677 15.8257C78.1677 17.0829 77.3843 18 76.3183 18ZM76.1295 14.4826C75.5952 14.4826 75.1061 14.9326 75.1061 15.5578V16.2662C75.1061 16.8244 75.5455 17.283 76.1136 17.283C76.8093 17.283 77.2231 16.7334 77.2231 15.8583C77.2221 15.0416 76.7915 14.4826 76.1295 14.4826ZM80.469 17.9081H79.5413V12H80.469V17.9081ZM85.5246 16.0996H82.7367C82.7553 16.8665 83.2781 17.2993 84.0526 17.2993C84.4655 17.2993 84.8439 17.2323 85.1789 17.1078L85.3233 17.7329C84.9281 17.8995 84.4638 17.9828 83.9223 17.9828C82.6144 17.9828 81.8407 17.1825 81.8407 15.9416C81.8407 14.6999 82.633 13.7664 83.8177 13.7664C84.8839 13.7664 85.5555 14.5333 85.5555 15.6917C85.559 15.8497 85.5511 15.9914 85.5246 16.0996ZM84.6729 15.4581C84.6729 14.833 84.3458 14.3916 83.7522 14.3916C83.2186 14.3916 82.7987 14.8416 82.7366 15.4581H84.6729ZM91.1533 18C89.9322 18 89.1409 17.1164 89.1409 15.9167C89.1409 14.6664 89.949 13.775 91.2233 13.775C92.4257 13.775 93.2358 14.6166 93.2358 15.8506C93.2358 17.1164 92.401 18 91.1533 18ZM91.1887 14.4328C90.5179 14.4328 90.0882 15.0408 90.0882 15.8909C90.0882 16.7248 90.5269 17.3328 91.18 17.3328C91.8331 17.3328 92.2707 16.6827 92.2707 15.8738C92.2716 15.0494 91.8418 14.4328 91.1887 14.4328ZM98.2283 17.9081H97.3006V15.5827C97.3006 14.8665 97.017 14.5075 96.4579 14.5075C95.9076 14.5075 95.5283 14.9661 95.5283 15.4994V17.9081H94.6005V15.0159C94.6005 14.6578 94.5908 14.2739 94.5659 13.8574H95.383L95.4264 14.4826H95.4521C95.7001 14.0498 96.2089 13.7742 96.776 13.7742C97.6524 13.7742 98.2284 14.4242 98.2284 15.4822V17.9081H98.2283ZM104.305 14.5333H103.283V16.4998C103.283 17.0004 103.463 17.2503 103.823 17.2503C103.987 17.2503 104.126 17.2331 104.236 17.2082L104.262 17.8918C104.081 17.9589 103.839 17.9923 103.541 17.9923C102.809 17.9923 102.372 17.6007 102.372 16.5754V14.5333H101.762V13.8583H102.372V13.1164L103.283 12.8493V13.8574H104.305V14.5333ZM109.223 17.9081H108.293V15.5998C108.293 14.8751 108.01 14.5084 107.451 14.5084C106.969 14.5084 106.523 14.8252 106.523 15.4667V17.9081H105.593V12H106.523V14.4328H106.541C106.833 13.9914 107.255 13.7742 107.796 13.7742C108.681 13.7742 109.223 14.4405 109.223 15.4994V17.9081ZM113.968 16.0996H111.181C111.199 16.8665 111.722 17.2993 112.496 17.2993C112.91 17.2993 113.288 17.2323 113.623 17.1078L113.768 17.7329C113.373 17.8995 112.908 17.9828 112.366 17.9828C111.058 17.9828 110.285 17.1825 110.285 15.9416C110.285 14.6999 111.077 13.7664 112.262 13.7664C113.328 13.7664 113.999 14.5333 113.999 15.6917C114.003 15.8497 113.994 15.9914 113.968 16.0996ZM113.117 15.4581C113.117 14.833 112.79 14.3916 112.197 14.3916C111.662 14.3916 111.242 14.8416 111.181 15.4581H113.117Z" fill="black"/>
<path d="M54.1402 27.9531H58.3925V33.6875C57.7954 33.8854 57.1776 34.0391 56.5389 34.1484C55.9003 34.2578 55.1838 34.3125 54.3894 34.3125C53.2316 34.3125 52.2503 34.0833 51.4455 33.625C50.6459 33.1615 50.0384 32.4922 49.6231 31.6172C49.2077 30.737 49 29.6771 49 28.4375C49 27.2448 49.231 26.2109 49.6931 25.3359C50.1552 24.4557 50.8276 23.776 51.7103 23.2969C52.5929 22.8125 53.6625 22.5703 54.919 22.5703C55.5369 22.5703 56.134 22.6328 56.7103 22.7578C57.2918 22.8776 57.824 23.0443 58.3069 23.2578L57.6526 24.8047C57.2684 24.6224 56.8375 24.4688 56.3598 24.3438C55.8821 24.2188 55.3863 24.1562 54.8723 24.1562C54.0571 24.1562 53.3536 24.3333 52.7617 24.6875C52.175 25.0417 51.7233 25.5417 51.4065 26.1875C51.0898 26.8281 50.9315 27.5859 50.9315 28.4609C50.9315 29.3099 51.0587 30.0547 51.3131 30.6953C51.5675 31.3359 51.9647 31.8359 52.5047 32.1953C53.0498 32.5495 53.7534 32.7266 54.6153 32.7266C55.0462 32.7266 55.4123 32.7031 55.7134 32.6562C56.0145 32.6094 56.2923 32.5573 56.5467 32.5V29.5547H54.1402V27.9531Z" fill="black"/>
<path d="M68.0854 29.8125C68.0854 30.5312 67.9919 31.1693 67.805 31.7266C67.6181 32.2839 67.3455 32.7552 66.9872 33.1406C66.629 33.5208 66.198 33.8125 65.6944 34.0156C65.1908 34.2135 64.6222 34.3125 63.9888 34.3125C63.3969 34.3125 62.8543 34.2135 62.3611 34.0156C61.8678 33.8125 61.4395 33.5208 61.076 33.1406C60.7178 32.7552 60.44 32.2839 60.2427 31.7266C60.0454 31.1693 59.9467 30.5312 59.9467 29.8125C59.9467 28.8594 60.1103 28.0521 60.4374 27.3906C60.7697 26.724 61.2422 26.2161 61.8548 25.8672C62.4675 25.5182 63.197 25.3438 64.0433 25.3438C64.8377 25.3438 65.5386 25.5182 66.1461 25.8672C66.7536 26.2161 67.2287 26.724 67.5713 27.3906C67.914 28.0573 68.0854 28.8646 68.0854 29.8125ZM61.8315 29.8125C61.8315 30.4427 61.9068 30.9818 62.0573 31.4297C62.2131 31.8776 62.4519 32.2214 62.7738 32.4609C63.0957 32.6953 63.5111 32.8125 64.0199 32.8125C64.5288 32.8125 64.9441 32.6953 65.266 32.4609C65.588 32.2214 65.8242 31.8776 65.9748 31.4297C66.1253 30.9818 66.2006 30.4427 66.2006 29.8125C66.2006 29.1823 66.1253 28.6484 65.9748 28.2109C65.8242 27.7682 65.588 27.4323 65.266 27.2031C64.9441 26.9688 64.5262 26.8516 64.0122 26.8516C63.2541 26.8516 62.7011 27.1068 62.3533 27.6172C62.0054 28.1276 61.8315 28.8594 61.8315 29.8125Z" fill="black"/>
<path d="M77.3421 29.8125C77.3421 30.5312 77.2486 31.1693 77.0617 31.7266C76.8748 32.2839 76.6022 32.7552 76.2439 33.1406C75.8857 33.5208 75.4547 33.8125 74.9511 34.0156C74.4475 34.2135 73.8789 34.3125 73.2455 34.3125C72.6536 34.3125 72.111 34.2135 71.6178 34.0156C71.1245 33.8125 70.6962 33.5208 70.3327 33.1406C69.9745 32.7552 69.6967 32.2839 69.4994 31.7266C69.3021 31.1693 69.2034 30.5312 69.2034 29.8125C69.2034 28.8594 69.367 28.0521 69.6941 27.3906C70.0264 26.724 70.4989 26.2161 71.1115 25.8672C71.7242 25.5182 72.4537 25.3438 73.3 25.3438C74.0944 25.3438 74.7953 25.5182 75.4028 25.8672C76.0103 26.2161 76.4854 26.724 76.828 27.3906C77.1707 28.0573 77.3421 28.8646 77.3421 29.8125ZM71.0882 29.8125C71.0882 30.4427 71.1634 30.9818 71.314 31.4297C71.4698 31.8776 71.7086 32.2214 72.0305 32.4609C72.3524 32.6953 72.7678 32.8125 73.2766 32.8125C73.7855 32.8125 74.2008 32.6953 74.5227 32.4609C74.8447 32.2214 75.0809 31.8776 75.2315 31.4297C75.382 30.9818 75.4573 30.4427 75.4573 29.8125C75.4573 29.1823 75.382 28.6484 75.2315 28.2109C75.0809 27.7682 74.8447 27.4323 74.5227 27.2031C74.2008 26.9688 73.7829 26.8516 73.2688 26.8516C72.5108 26.8516 71.9578 27.1068 71.61 27.6172C71.2621 28.1276 71.0882 28.8594 71.0882 29.8125Z" fill="black"/>
<path d="M81.4274 38C80.2592 38 79.3636 37.7891 78.7405 37.3672C78.1174 36.9453 77.8059 36.3542 77.8059 35.5938C77.8059 35.0625 77.9721 34.612 78.3044 34.2422C78.6367 33.8776 79.1117 33.625 79.7296 33.4844C79.496 33.3802 79.2935 33.2188 79.1221 33C78.956 32.776 78.8729 32.5286 78.8729 32.2578C78.8729 31.9349 78.9638 31.6589 79.1455 31.4297C79.3272 31.2005 79.5998 30.9792 79.9632 30.7656C79.5115 30.5729 79.1481 30.2604 78.8729 29.8281C78.6029 29.3906 78.4679 28.8776 78.4679 28.2891C78.4679 27.6641 78.6003 27.1328 78.8651 26.6953C79.1299 26.2526 79.5167 25.9167 80.0255 25.6875C80.5344 25.4531 81.1496 25.3359 81.8713 25.3359C82.0271 25.3359 82.1958 25.3464 82.3776 25.3672C82.5645 25.3828 82.7358 25.4036 82.8916 25.4297C83.0525 25.4505 83.1746 25.474 83.2576 25.5H86.2405V26.5234L84.7763 26.7969C84.9165 26.9948 85.0281 27.2214 85.1112 27.4766C85.1943 27.7266 85.2358 28 85.2358 28.2969C85.2358 29.1927 84.9269 29.8984 84.309 30.4141C83.6964 30.9245 82.8501 31.1797 81.7701 31.1797C81.5105 31.1693 81.2587 31.1484 81.0146 31.1172C80.8277 31.2318 80.6849 31.3594 80.5863 31.5C80.4876 31.6354 80.4383 31.7891 80.4383 31.9609C80.4383 32.1016 80.4876 32.2161 80.5863 32.3047C80.6849 32.388 80.8303 32.4505 81.0224 32.4922C81.2197 32.5339 81.4586 32.5547 81.7389 32.5547H83.2265C84.1714 32.5547 84.8931 32.7552 85.3916 33.1562C85.89 33.5573 86.1393 34.1458 86.1393 34.9219C86.1393 35.9062 85.7343 36.6641 84.9243 37.1953C84.1143 37.7318 82.9487 38 81.4274 38ZM81.4975 36.7109C82.1361 36.7109 82.6735 36.6484 83.1097 36.5234C83.5458 36.3984 83.8755 36.2188 84.0988 35.9844C84.322 35.7552 84.4336 35.4818 84.4336 35.1641C84.4336 34.8828 84.3635 34.6667 84.2234 34.5156C84.0832 34.3646 83.8729 34.2604 83.5925 34.2031C83.3121 34.1458 82.9643 34.1172 82.5489 34.1172H81.1938C80.8563 34.1172 80.5577 34.1693 80.2981 34.2734C80.0385 34.3828 79.836 34.5391 79.6907 34.7422C79.5505 34.9453 79.4804 35.1901 79.4804 35.4766C79.4804 35.8724 79.6543 36.1771 80.0022 36.3906C80.3552 36.6042 80.8537 36.7109 81.4975 36.7109ZM81.8558 29.9766C82.3905 29.9766 82.7877 29.8307 83.0474 29.5391C83.307 29.2422 83.4368 28.8255 83.4368 28.2891C83.4368 27.7057 83.3018 27.2682 83.0318 26.9766C82.767 26.6849 82.3724 26.5391 81.848 26.5391C81.334 26.5391 80.9419 26.6875 80.672 26.9844C80.4072 27.2812 80.2748 27.7214 80.2748 28.3047C80.2748 28.8307 80.4072 29.2422 80.672 29.5391C80.9419 29.8307 81.3366 29.9766 81.8558 29.9766Z" fill="black"/>
<path d="M89.1732 34.1562H87.3352V22H89.1732V34.1562Z" fill="black"/>
<path d="M94.7461 25.3438C95.5145 25.3438 96.1739 25.5026 96.7243 25.8203C97.2747 26.138 97.6978 26.5885 97.9938 27.1719C98.2897 27.7552 98.4377 28.4531 98.4377 29.2656V30.25H92.6822C92.703 31.0885 92.9263 31.7344 93.352 32.1875C93.783 32.6406 94.3853 32.8672 95.1589 32.8672C95.7092 32.8672 96.2025 32.8151 96.6386 32.7109C97.08 32.6016 97.5343 32.4427 98.0016 32.2344V33.7266C97.5706 33.9297 97.1319 34.0781 96.6854 34.1719C96.2388 34.2656 95.704 34.3125 95.081 34.3125C94.2347 34.3125 93.4896 34.1484 92.8458 33.8203C92.2072 33.487 91.7061 32.9922 91.3427 32.3359C90.9844 31.6797 90.8053 30.8646 90.8053 29.8906C90.8053 28.9219 90.9688 28.099 91.2959 27.4219C91.6231 26.7448 92.0826 26.2292 92.6745 25.875C93.2664 25.5208 93.9569 25.3438 94.7461 25.3438ZM94.7461 26.7266C94.1698 26.7266 93.7025 26.9141 93.3442 27.2891C92.9912 27.6641 92.7835 28.2135 92.7212 28.9375H96.6464C96.6412 28.5052 96.5685 28.1224 96.4283 27.7891C96.2934 27.4557 96.0857 27.1953 95.8053 27.0078C95.5301 26.8203 95.1771 26.7266 94.7461 26.7266Z" fill="black"/>
<path d="M107.185 22.7344C108.654 22.7344 109.726 23.0365 110.401 23.6406C111.076 24.2448 111.414 25.0911 111.414 26.1797C111.414 26.6745 111.336 27.1458 111.18 27.5938C111.029 28.0365 110.78 28.4297 110.432 28.7734C110.085 29.112 109.625 29.3802 109.054 29.5781C108.488 29.776 107.79 29.875 106.959 29.875H105.744V34.1562H103.875V22.7344H107.185ZM107.06 24.2891H105.744V28.3125H106.764C107.351 28.3125 107.849 28.2448 108.26 28.1094C108.67 27.9688 108.981 27.7474 109.194 27.4453C109.407 27.1432 109.513 26.7448 109.513 26.25C109.513 25.5885 109.313 25.0964 108.914 24.7734C108.519 24.4505 107.901 24.2891 107.06 24.2891Z" fill="black"/>
<path d="M114.86 34.1562H113.022V22H114.86V34.1562Z" fill="black"/>
<path d="M120.379 25.3438C121.469 25.3438 122.292 25.5859 122.848 26.0703C123.408 26.5547 123.689 27.3099 123.689 28.3359V34.1562H122.388L122.038 32.9297H121.975C121.731 33.2422 121.48 33.5 121.22 33.7031C120.96 33.9062 120.659 34.0573 120.317 34.1562C119.979 34.2604 119.566 34.3125 119.078 34.3125C118.564 34.3125 118.105 34.2188 117.7 34.0312C117.295 33.8385 116.975 33.5469 116.742 33.1562C116.508 32.7656 116.391 32.2708 116.391 31.6719C116.391 30.7812 116.721 30.112 117.38 29.6641C118.045 29.2161 119.047 28.9688 120.387 28.9219L121.882 28.8672V28.4141C121.882 27.8151 121.742 27.388 121.461 27.1328C121.186 26.8776 120.797 26.75 120.293 26.75C119.862 26.75 119.444 26.8125 119.039 26.9375C118.634 27.0625 118.24 27.2161 117.855 27.3984L117.264 26.1016C117.684 25.8776 118.162 25.6953 118.697 25.5547C119.237 25.4141 119.797 25.3438 120.379 25.3438ZM121.874 30.0234L120.76 30.0625C119.847 30.0938 119.205 30.25 118.837 30.5312C118.468 30.8125 118.284 31.1979 118.284 31.6875C118.284 32.1146 118.411 32.4271 118.665 32.625C118.92 32.8177 119.255 32.9141 119.67 32.9141C120.304 32.9141 120.828 32.7344 121.243 32.375C121.664 32.0104 121.874 31.4766 121.874 30.7734V30.0234Z" fill="black"/>
<path d="M124.472 25.5078H126.466L128.234 30.4453C128.312 30.6693 128.382 30.8906 128.444 31.1094C128.511 31.3229 128.569 31.5339 128.615 31.7422C128.667 31.9505 128.709 32.1589 128.74 32.3672H128.787C128.839 32.0964 128.911 31.7943 129.005 31.4609C129.103 31.1224 129.212 30.7839 129.332 30.4453L131.03 25.5078H133L129.301 35.3438C129.088 35.9062 128.826 36.3854 128.514 36.7812C128.208 37.1823 127.844 37.4844 127.424 37.6875C127.003 37.8958 126.523 38 125.983 38C125.723 38 125.497 37.9844 125.305 37.9531C125.113 37.9271 124.95 37.8984 124.815 37.8672V36.3984C124.924 36.4245 125.061 36.4479 125.227 36.4688C125.394 36.4896 125.565 36.5 125.741 36.5C126.069 36.5 126.352 36.4349 126.59 36.3047C126.829 36.1745 127.032 35.9896 127.198 35.75C127.364 35.5156 127.502 35.2474 127.611 34.9453L127.914 34.1328L124.472 25.5078Z" fill="black"/>
<path d="M34.9557 28.0827L30.8422 24L34.9558 19.9173L38.9577 22.2088C40.3474 23.0046 40.3474 24.9954 38.9577 25.7912L34.9557 28.0827Z" fill="black"/>
<path d="M34.0215 28.6177L30.1056 24.7312L16.7624 37.9744C17.207 38.0449 17.6834 37.9729 18.1247 37.7202L34.0215 28.6177Z" fill="black"/>
<path d="M15.7491 37.5179L29.369 24L15.7491 10.4821C15.2994 10.8518 15 11.41 15 12.071V35.929C15 36.5901 15.2994 37.1482 15.7491 37.5179Z" fill="black"/>
<path d="M16.7624 10.0256C17.207 9.95511 17.6833 10.0271 18.1247 10.2798L34.0215 19.3823L30.1056 23.2689L16.7624 10.0256Z" fill="black"/>
<defs>
<filter id="filter0_b_95_538" x="-104" y="-104" width="362" height="256" filterUnits="userSpaceOnUse" color-interpolation-filters="sRGB">
<feFlood flood-opacity="0" result="BackgroundImageFix"/>
<feGaussianBlur in="BackgroundImage" stdDeviation="52"/>
<feComposite in2="SourceAlpha" operator="in" result="effect1_backgroundBlur_95_538"/>
<feBlend mode="normal" in="SourceGraphic" in2="effect1_backgroundBlur_95_538" result="shape"/>
</filter>
</defs>
</svg>
